<svg data-v-fde0c5aa="" xmlns="http://www.w3.org/2000/svg" viewBox="0 0 300 300" class="iconLeft"><!----><defs data-v-fde0c5aa=""><!----></defs><rect data-v-fde0c5aa="" fill="#FFFFFF" x="0" y="0" width="300px" height="300px" class="logo-background-square"></rect><defs data-v-fde0c5aa=""><!----></defs><g data-v-fde0c5aa="" id="7e850751-eb6f-4a74-8aee-e9cd7ac8f7dd" fill="#00897B" transform="matrix(3.1829013820145815,0,0,3.1829013820145815,98.46774955072021,120.54224658633807)"><path d="M6.37 14.35L6.37 14.07L1.82 14.07L1.82 4.58L1.51 4.58L1.51 14.35ZM12.46 14.35L12.75 14.35L12.75 7.27L12.46 7.27L12.46 12.33C12.46 13.62 11.40 14.25 10.23 14.25C8.85 14.25 8.06 13.48 8.06 11.76L8.06 7.27L7.77 7.27L7.77 11.82C7.77 13.58 8.62 14.52 10.21 14.52C11.48 14.52 12.17 13.92 12.42 13.29L12.46 13.29ZM15.99 14.35L15.99 9.28C15.99 7.99 17.01 7.36 18.14 7.36C19.52 7.36 20.30 8.13 20.30 9.84L20.30 14.35L20.59 14.35L20.59 9.31C20.59 8.01 21.60 7.36 22.75 7.36C24.15 7.36 24.91 8.13 24.91 9.84L24.91 14.35L25.20 14.35L25.20 9.80C25.20 8.04 24.36 7.10 22.78 7.10C21.46 7.10 20.72 7.76 20.45 8.67L20.40 8.67C20.12 7.64 19.32 7.10 18.17 7.10C16.93 7.10 16.28 7.70 16.03 8.33L15.99 8.33L15.99 7.27L15.69 7.27L15.69 14.35ZM28.14 4.93C28.38 4.93 28.46 4.79 28.46 4.63L28.46 4.54C28.46 4.38 28.38 4.24 28.14 4.24C27.90 4.24 27.82 4.38 27.82 4.54L27.82 4.63C27.82 4.79 27.90 4.93 28.14 4.93ZM28 14.35L28.29 14.35L28.29 7.27L28 7.27ZM36.13 14.35L36.13 14.07L31.58 14.07L31.58 4.58L31.28 4.58L31.28 14.35ZM43.40 14.35L43.40 14.08L42.21 14.08L42.21 9.42C42.21 7.92 41.44 7.10 39.90 7.10C38.58 7.10 37.90 7.67 37.51 8.58L37.76 8.69C38.15 7.77 38.84 7.36 39.90 7.36C41.22 7.36 41.92 8.01 41.92 9.46L41.92 10.50L39.93 10.50C37.90 10.50 37.27 11.35 37.27 12.53C37.27 13.80 38.09 14.52 39.55 14.52C40.85 14.52 41.52 13.94 41.87 13.27L41.92 13.27L41.92 13.94C41.92 14.22 42.04 14.35 42.32 14.35ZM39.55 14.25C38.40 14.25 37.59 13.72 37.59 12.74L37.59 12.32C37.59 11.38 38.28 10.75 39.94 10.75L41.92 10.75L41.92 12.28C41.92 13.59 40.81 14.25 39.55 14.25ZM45.15 14.35L45.44 14.35L45.44 13.26L45.49 13.26C45.78 13.87 46.54 14.52 47.78 14.52C49.64 14.52 50.75 13.27 50.75 10.81C50.75 8.34 49.64 7.10 47.78 7.10C46.54 7.10 45.78 7.74 45.49 8.36L45.44 8.36L45.44 3.99L45.15 3.99ZM47.78 14.25C46.55 14.25 45.44 13.48 45.44 12.35L45.44 9.27C45.44 8.13 46.55 7.36 47.78 7.36C49.48 7.36 50.43 8.55 50.43 10.47L50.43 11.14C50.43 13.06 49.48 14.25 47.78 14.25Z"></path></g><defs data-v-fde0c5aa=""><!----></defs><g data-v-fde0c5aa="" id="e1bab23f-8ce2-41d6-bb3b-e22ac2ba41dc" stroke="none" fill="#00897B" transform="matrix(1.5710603314752412,0,0,1.5710603314752412,40,124.86303469639614)"><path d="M16 32c8.837 0 16-7.163 16-16S24.837 0 16 0 0 7.163 0 16s7.163 16 16 16zM14.817 6.421h2v8.886h8.887v2H14.817V6.421zm-5.959.437h2v14.283h14.283v2H8.858V6.858z"></path></g><!----></svg>