<svg xmlns="http://www.w3.org/2000/svg" viewBox="0 0 500 500"><g id="freepik--background-complete--inject-5"><rect y="382.4" width="500" height="0.25" style="fill:#ebebeb"></rect><rect x="394.67" y="398.49" width="55.23" height="0.25" style="fill:#ebebeb"></rect><rect x="321.81" y="393.25" width="8.69" height="0.25" style="fill:#ebebeb"></rect><rect x="372.47" y="389.21" width="19.19" height="0.25" style="fill:#ebebeb"></rect><rect x="52.46" y="390.89" width="43.19" height="0.25" style="fill:#ebebeb"></rect><rect x="215.33" y="397.35" width="45.72" height="0.25" style="fill:#ebebeb"></rect><rect x="140.46" y="393.12" width="93.68" height="0.25" style="fill:#ebebeb"></rect><path d="M43.91,337.8H237a5.71,5.71,0,0,0,5.71-5.71V60.66A5.71,5.71,0,0,0,237,55H43.91a5.71,5.71,0,0,0-5.7,5.71V332.09A5.71,5.71,0,0,0,43.91,337.8ZM38.46,60.66a5.46,5.46,0,0,1,5.45-5.46H237a5.47,5.47,0,0,1,5.46,5.46V332.09a5.47,5.47,0,0,1-5.46,5.46H43.91a5.46,5.46,0,0,1-5.45-5.46Z" style="fill:#ebebeb"></path><path d="M260.21,337.8h193.1a5.71,5.71,0,0,0,5.71-5.71V60.66A5.71,5.71,0,0,0,453.31,55H260.21a5.72,5.72,0,0,0-5.71,5.71V332.09A5.72,5.72,0,0,0,260.21,337.8ZM254.75,60.66a5.47,5.47,0,0,1,5.46-5.46h193.1a5.47,5.47,0,0,1,5.46,5.46V332.09a5.47,5.47,0,0,1-5.46,5.46H260.21a5.47,5.47,0,0,1-5.46-5.46Z" style="fill:#ebebeb"></path><rect x="196.92" y="68.46" width="228.28" height="131.24" style="fill:#f5f5f5"></rect><rect x="314.4" y="78.23" width="104.07" height="113.46" style="fill:#fafafa"></rect><polygon points="404.37 86.17 386.39 86.17 377.4 101.74 386.39 117.31 404.37 117.31 413.36 101.74 404.37 86.17" style="fill:#f0f0f0"></polygon><polygon points="377.4 132.87 359.43 132.87 350.44 148.44 359.43 164.01 377.4 164.01 386.39 148.44 377.4 132.87" style="fill:#fff"></polygon><polygon points="377.4 101.74 359.43 101.74 350.44 117.31 359.43 132.87 377.4 132.87 386.39 117.31 377.4 101.74" style="fill:#ebebeb"></polygon><rect x="210.87" y="169.97" width="85" height="19.54" style="fill:#fafafa"></rect><path d="M246.61,93.76a7.2,7.2,0,1,1-5.82-8.36A7.21,7.21,0,0,1,246.61,93.76Z" style="fill:#ebebeb"></path><path d="M233.86,135.65a7.2,7.2,0,1,1-5.82-8.36A7.2,7.2,0,0,1,233.86,135.65Z" style="fill:#ebebeb"></path><circle cx="271.31" cy="152.86" r="7.2" transform="translate(-3.57 6.52) rotate(-1.37)" style="fill:#ebebeb"></circle><circle cx="281.72" cy="109.08" r="7.2" transform="translate(39.55 289.69) rotate(-57.88)" style="fill:#ebebeb"></circle><path d="M298.66,107a3,3,0,1,1-2.46-3.52A3.05,3.05,0,0,1,298.66,107Z" style="fill:#ebebeb"></path><path d="M281.72,110.27a1.19,1.19,0,0,1-.22-2.36l13.95-2.6a1.19,1.19,0,1,1,.44,2.34l-13.95,2.6A.82.82,0,0,1,281.72,110.27Z" style="fill:#ebebeb"></path><path d="M220.39,114.49a3,3,0,1,1-3.25,2.81A3,3,0,0,1,220.39,114.49Z" style="fill:#ebebeb"></path><path d="M226.77,135.57a1.21,1.21,0,0,1-1.11-.76L219.06,118a1.19,1.19,0,0,1,2.22-.87l6.6,16.86a1.2,1.2,0,0,1-.68,1.55A1.31,1.31,0,0,1,226.77,135.57Z" style="fill:#ebebeb"></path><path d="M269.73,124.77a7.84,7.84,0,1,1-6.33-9.1A7.84,7.84,0,0,1,269.73,124.77Z" style="fill:#ebebeb"></path><path d="M226.77,135.57a1.18,1.18,0,0,1-1.13-.84,1.19,1.19,0,0,1,.78-1.49l33.66-10.49L238.56,93.19a1.19,1.19,0,1,1,1.92-1.4l22.5,30.9a1.2,1.2,0,0,1,.17,1.07,1.18,1.18,0,0,1-.78.76l-35.25,11A1,1,0,0,1,226.77,135.57Z" style="fill:#ebebeb"></path><path d="M271.31,154a1.18,1.18,0,0,1-1.13-.83l-9.3-29.47a1.2,1.2,0,0,1,.44-1.32l19.7-14.3a1.19,1.19,0,0,1,1.4,1.92l-19,13.81,9,28.65a1.2,1.2,0,0,1-.78,1.49A1.12,1.12,0,0,1,271.31,154Z" style="fill:#ebebeb"></path><rect x="425.2" y="68.46" width="3" height="131.24" transform="translate(853.41 268.15) rotate(180)" style="fill:#e6e6e6"></rect><path d="M135.6,307.67H63.36A9.21,9.21,0,0,0,54.19,316L47.9,382.4H151.06L144.77,316A9.21,9.21,0,0,0,135.6,307.67Z" style="fill:#ebebeb"></path><rect x="63.23" y="101.74" width="72.49" height="205.93" style="fill:#f5f5f5"></rect><rect x="59.51" y="92.49" width="79.93" height="9.25" rx="2.89" style="fill:#ebebeb"></rect><path d="M99.48,62.35A32.86,32.86,0,0,0,66.62,95.21h65.71A32.86,32.86,0,0,0,99.48,62.35Z" style="fill:#ebebeb"></path><circle cx="90.67" cy="261" r="11" style="fill:#fafafa"></circle><circle cx="106.82" cy="229.01" r="6.16" style="fill:#fafafa"></circle><circle cx="108.89" cy="130.97" r="11" style="fill:#fafafa"></circle><path d="M83.07,196.56a6.16,6.16,0,1,1-6.16,6.16A6.16,6.16,0,0,1,83.07,196.56Z" style="fill:#fafafa"></path><circle cx="101.67" cy="172.05" r="4" style="fill:#fafafa"></circle><rect x="152.55" y="272.61" width="142.95" height="76.63" transform="translate(534.94 86.9) rotate(90)" style="fill:#f0f0f0"></rect><rect x="203.07" y="237.95" width="41.9" height="53.25" transform="translate(488.6 40.55) rotate(90)" style="fill:#f5f5f5"></rect><rect x="203.07" y="283.61" width="41.9" height="53.25" transform="translate(534.26 86.21) rotate(90)" style="fill:#f5f5f5"></rect><rect x="203.07" y="329.27" width="41.9" height="53.25" transform="translate(579.92 131.88) rotate(90)" style="fill:#f5f5f5"></rect><path d="M232.22,243.07h-16.4a4.34,4.34,0,0,0,4.35,4.34h7.71A4.34,4.34,0,0,0,232.22,243.07Z" style="fill:#e6e6e6"></path><path d="M232.22,288.73h-16.4a4.35,4.35,0,0,0,4.35,4.35h7.71A4.34,4.34,0,0,0,232.22,288.73Z" style="fill:#e6e6e6"></path><path d="M232.22,334.39h-16.4a4.35,4.35,0,0,0,4.35,4.35h7.71A4.34,4.34,0,0,0,232.22,334.39Z" style="fill:#e6e6e6"></path><rect x="201.58" y="300.2" width="142.95" height="21.44" transform="translate(583.98 37.86) rotate(90)" style="fill:#e6e6e6"></rect><rect x="268.51" y="238.21" width="142.95" height="145.43" transform="translate(650.91 -29.07) rotate(90)" style="fill:#f0f0f0"></rect><path d="M388.59,225.6v-7.3a.41.41,0,0,0,.3-.38.4.4,0,0,0-.4-.4h-3.85a.4.4,0,0,0-.11.78v7.3a7.07,7.07,0,1,0,4.06,0Z" style="fill:#f0f0f0"></path><path d="M378.08,227.91V225a.33.33,0,0,0-.09-.65h-3.21a.33.33,0,0,0-.33.33.32.32,0,0,0,.24.32v2.92a5.9,5.9,0,1,0,3.39,0Z" style="fill:#f0f0f0"></path><path d="M405.67,227V213.12a.46.46,0,0,0,.36-.45.49.49,0,0,0-.48-.48H401a.48.48,0,0,0-.48.48.46.46,0,0,0,.35.45V227a7.71,7.71,0,0,1-2.94,5.92,8.44,8.44,0,0,0-2.43,3.28,2.36,2.36,0,0,0,2.22,3.23h11.15a2.37,2.37,0,0,0,2.23-3.23,8.47,8.47,0,0,0-2.44-3.28A7.74,7.74,0,0,1,405.67,227Z" style="fill:#f0f0f0"></path><rect x="319.04" y="203.55" width="41.9" height="122.05" transform="translate(604.56 -75.42) rotate(90)" style="fill:#f5f5f5"></rect><rect x="319.04" y="249.21" width="41.9" height="122.05" transform="translate(650.23 -29.75) rotate(90)" style="fill:#f5f5f5"></rect><rect x="319.04" y="294.87" width="41.9" height="122.05" transform="translate(695.89 15.91) rotate(90)" style="fill:#f5f5f5"></rect><path d="M348.19,243.07h-16.4a4.34,4.34,0,0,0,4.35,4.34h7.71A4.34,4.34,0,0,0,348.19,243.07Z" style="fill:#e6e6e6"></path><path d="M348.19,288.73h-16.4a4.35,4.35,0,0,0,4.35,4.35h7.71A4.34,4.34,0,0,0,348.19,288.73Z" style="fill:#e6e6e6"></path><path d="M348.19,334.39h-16.4a4.35,4.35,0,0,0,4.35,4.35h7.71A4.34,4.34,0,0,0,348.19,334.39Z" style="fill:#e6e6e6"></path><rect x="351.95" y="300.2" width="142.95" height="21.44" transform="translate(734.34 -112.5) rotate(90)" style="fill:#e6e6e6"></rect></g><g id="freepik--Shadow--inject-5"><ellipse id="freepik--path--inject-5" cx="250" cy="416.24" rx="193.89" ry="11.32" style="fill:#f5f5f5"></ellipse></g><g id="freepik--Cabinet--inject-5"><g style="opacity:0.2"><path d="M157.81,210.78v21.36a2.79,2.79,0,0,0,5.57,0V210.78Z" style="fill:#00897B"></path><path d="M163.24,211.33H158a.55.55,0,0,1-.55-.55h0a.55.55,0,0,1,.55-.55h5.28a.55.55,0,0,1,.55.55h0A.55.55,0,0,1,163.24,211.33Z" style="fill:#00897B"></path></g><g style="opacity:0.2"><path d="M168.92,210.78v21.36a2.79,2.79,0,0,0,5.57,0V210.78Z" style="fill:#00897B"></path><path d="M174.34,211.33h-5.28a.55.55,0,0,1-.55-.55h0a.55.55,0,0,1,.55-.55h5.28a.55.55,0,0,1,.55.55h0A.55.55,0,0,1,174.34,211.33Z" style="fill:#00897B"></path></g><g style="opacity:0.2"><path d="M180,210.78v21.36a2.79,2.79,0,0,0,5.57,0V210.78Z" style="fill:#00897B"></path><path d="M185.45,211.33h-5.29a.55.55,0,0,1-.55-.55h0a.55.55,0,0,1,.55-.55h5.29a.55.55,0,0,1,.55.55h0A.55.55,0,0,1,185.45,211.33Z" style="fill:#00897B"></path></g><path d="M191.76,215.07H151.64a.58.58,0,0,1-.58-.58h0a.58.58,0,0,1,.58-.58h40.12a.58.58,0,0,1,.58.58h0A.58.58,0,0,1,191.76,215.07Z" style="fill:#00897B"></path><rect x="140.4" y="227.04" width="29.22" height="1.16" transform="translate(382.64 72.61) rotate(90)" style="fill:#00897B"></rect><rect x="173.78" y="227.04" width="29.22" height="1.16" transform="translate(416.02 39.23) rotate(90)" style="fill:#00897B"></rect><path d="M231.42,197.14H208.05a.58.58,0,0,1-.58-.58h0a.58.58,0,0,1,.58-.58h23.37a.58.58,0,0,1,.58.58h0A.58.58,0,0,1,231.42,197.14Z" style="fill:#00897B"></path><rect x="222.93" y="195.46" width="7.99" height="2.21" rx="0.46" style="fill:#00897B"></rect><rect x="187.85" y="218.08" width="47.15" height="1.16" transform="translate(430.08 7.24) rotate(90)" style="fill:#00897B"></rect><path d="M274.12,225.22v-6a.65.65,0,0,0-.17-1.28h-6.31a.67.67,0,0,0-.66.66.65.65,0,0,0,.49.62v6a10.58,10.58,0,0,1-4,8.11,11.54,11.54,0,0,0-3.34,4.49,3.25,3.25,0,0,0,3,4.44h15.29a3.25,3.25,0,0,0,3-4.44,11.54,11.54,0,0,0-3.34-4.49A10.58,10.58,0,0,1,274.12,225.22Z" style="fill:#00897B;opacity:0.1"></path><rect x="220.12" y="234.24" width="13.62" height="7.99" rx="3.18" style="fill:#00897B;opacity:0.6000000000000001"></rect><rect x="222.32" y="231.32" width="9.21" height="2.92" rx="1.2" style="fill:#00897B;opacity:0.8"></rect><rect x="226.52" y="232.08" width="0.83" height="1.41" rx="0.25" style="fill:#00897B"></rect><rect x="228" y="232.08" width="0.83" height="1.41" rx="0.25" style="fill:#00897B"></rect><rect x="229.48" y="232.08" width="0.83" height="1.41" rx="0.25" style="fill:#00897B"></rect><rect x="230.96" y="232.08" width="0.83" height="1.41" rx="0.25" style="fill:#00897B"></rect><rect x="225.04" y="232.08" width="0.83" height="1.41" rx="0.25" style="fill:#00897B"></rect><rect x="223.55" y="232.08" width="0.83" height="1.41" rx="0.25" style="fill:#00897B"></rect><rect x="222.07" y="232.08" width="0.83" height="1.41" rx="0.25" style="fill:#00897B"></rect><path d="M226.93,230.77c-1.4.28-1.94-2.9,0-5.71C227.44,226.1,229.87,230.19,226.93,230.77Z" style="fill:#00897B;opacity:0.6000000000000001"></path><path d="M227,230.65c-.81.16-1.12-1.67,0-3.29C227.26,228,228.66,230.32,227,230.65Z" style="fill:#00897B;opacity:0.6000000000000001"></path><rect x="124.58" y="249.66" width="199.11" height="166.57" style="fill:#00897B"></rect><rect x="124.58" y="249.66" width="199.11" height="166.57" style="fill:#fff;opacity:0.7000000000000001"></rect><rect x="280.86" y="249.66" width="42.83" height="166.57" style="fill:#00897B;opacity:0.2"></rect><path d="M270.24,404.88h-135V261h135Zm-134-1h133V262.06H136.25Z" style="fill:#00897B;opacity:0.30000000000000004"></path><g style="opacity:0.30000000000000004"><path d="M173.28,385.3l-.8-.8c7.69-7.68,8.84-20.47,10-32.83,1.09-12.06,2.11-23.45,8.84-30.18,8-8,21-9.14,33.53-10.27,11.85-1.07,23-2.07,29.47-8.51l.8.8c-6.72,6.73-18.11,7.75-30.17,8.84-12.36,1.11-25.15,2.26-32.83,9.94-6.44,6.44-7.45,17.63-8.51,29.48C182.43,364.33,181.26,377.33,173.28,385.3Z" style="fill:#00897B"></path><path d="M151.17,363.19l-.8-.8c8-8,21-9.14,33.53-10.27,11.85-1.07,23-2.08,29.48-8.51,7.68-7.69,8.83-20.47,10-32.84,1.08-12.06,2.11-23.44,8.83-30.17l.8.8c-6.43,6.43-7.44,17.63-8.51,29.47-1.13,12.57-2.3,25.56-10.27,33.54-6.73,6.72-18.12,7.75-30.17,8.83C171.64,354.35,158.86,355.51,151.17,363.19Z" style="fill:#00897B"></path><rect x="202.16" y="323.37" width="1.13" height="19.17" transform="translate(-176.05 240.86) rotate(-45)" style="fill:#00897B"></rect><rect x="192.3" y="336.7" width="1.13" height="12.22" transform="translate(-185.91 236.78) rotate(-45)" style="fill:#00897B"></rect><rect x="243.05" y="282.47" width="1.13" height="19.17" transform="translate(-135.16 257.8) rotate(-45)" style="fill:#00897B"></rect><rect x="233.2" y="295.8" width="1.13" height="12.22" transform="translate(-145.02 253.72) rotate(-45)" style="fill:#00897B"></rect><rect x="212.01" y="316.99" width="1.13" height="12.22" transform="translate(-166.2 244.95) rotate(-45)" style="fill:#00897B"></rect><rect x="161.26" y="364.26" width="1.13" height="19.17" transform="translate(-216.95 223.92) rotate(-45)" style="fill:#00897B"></rect><rect x="171.12" y="357.88" width="1.13" height="12.22" transform="translate(-207.09 228.01) rotate(-45)" style="fill:#00897B"></rect></g><path d="M326.74,249.66H121.53a3.72,3.72,0,0,1-3.71-3.71h0a3.73,3.73,0,0,1,3.71-3.72H326.74a3.74,3.74,0,0,1,3.72,3.72h0A3.73,3.73,0,0,1,326.74,249.66Z" style="fill:#00897B"></path><path d="M326.74,249.66H277.79a3.73,3.73,0,0,1-3.72-3.71h0a3.74,3.74,0,0,1,3.72-3.72h48.95a3.74,3.74,0,0,1,3.72,3.72h0A3.73,3.73,0,0,1,326.74,249.66Z" style="opacity:0.30000000000000004"></path></g></svg>